<svg width="52" height="42" viewBox="0 0 52 42" fill="none" xmlns="http://www.w3.org/2000/svg">
<path fill-rule="evenodd" clip-rule="evenodd" d="M6.81417 33.7749L3.96054 30.9133C3.3339 30.2837 2.03578 31.5845 2.66294 32.2146L5.51684 35.0785C6.14605 35.7109 7.44004 34.3993 6.81417 33.7749Z" fill="#FFFB4C"/>
<path fill-rule="evenodd" clip-rule="evenodd" d="M8.91016 29.3724V34.4633C8.91016 35.5816 11.2217 35.5785 11.2217 34.4633V29.3724C11.2217 28.2609 8.91016 28.2578 8.91016 29.3724Z" fill="#FFFB4C"/>
<path fill-rule="evenodd" clip-rule="evenodd" d="M16.166 30.9134L13.315 33.775C12.6778 34.3957 13.9877 35.7102 14.6097 35.0786L17.4683 32.2144C18.0944 31.5804 16.7909 30.2846 16.166 30.9134Z" fill="#FFFB4C"/>
<path fill-rule="evenodd" clip-rule="evenodd" d="M48.233 8.59425H28.5954V9.91131H16.7992V6.36523H3.48438V17.7715H16.7992V14.2231H28.5954V15.5381H48.233C53.2552 15.5381 53.2536 8.59452 48.233 8.59425Z" fill="#FFFB4C"/>
<path fill-rule="evenodd" clip-rule="evenodd" d="M17.5679 5.71684H2.3456C-0.755133 5.71684 -0.808484 0 2.3456 0H17.5679C20.6694 0 20.7194 5.71684 17.5679 5.71684Z" fill="#FFFB4C"/>
<path fill-rule="evenodd" clip-rule="evenodd" d="M17.5685 24.136H2.34617C-0.755849 24.136 -0.808154 18.4199 2.34617 18.4199H17.5685C20.67 18.4199 20.7215 24.136 17.5685 24.136Z" fill="#FFFB4C"/>
<path fill-rule="evenodd" clip-rule="evenodd" d="M1.67188 36.3496H18.3745V42H1.67188V36.3496Z" fill="#FFFB4C"/>
</svg>
